<svg width="0" height="0" class="hidden">
  <symbol version="1.1" id="ic_arrow" xmlns="http://www.w3.org/2000/svg" xmlns:xlink="http://www.w3.org/1999/xlink" x="0px" y="0px" xml:space="preserve" viewBox="0 0 39.3 25.7">
    <g>
      <path d="M3.4,15h34.4c0.8,0,1.5-0.7,1.5-1.5S38.7,12,37.8,12H3.4c-0.8,0-1.5,0.7-1.5,1.5S2.6,15,3.4,15z" fill="currentColor"></path>
    </g>
    <g>
      <path d="M12.5,25.7c0.4,0,0.8-0.2,1.1-0.5c0.6-0.6,0.6-1.5,0-2.1l-10-9.7l10-10.9c0.6-0.6,0.5-1.6-0.1-2.1
		c-0.6-0.6-1.6-0.5-2.1,0.1l-11,12c-0.5,0.6-0.5,1.5,0.1,2.1l11,10.7C11.7,25.6,12.1,25.7,12.5,25.7z" fill="currentColor"></path>
    </g>
  </symbol>
  <symbol version="1.1" id="ic_calendar" xmlns="http://www.w3.org/2000/svg" xmlns:xlink="http://www.w3.org/1999/xlink" x="0px" y="0px" xml:space="preserve" viewBox="0 0 86 88">
    <g transform="translate(0,-952.36218)">
      <path d="M23,952.4c-0.6,0-1,0.4-1,1v13.1c-3.4,0.5-6,3.4-6,6.9c0,3.9,3.1,7,7,7c3.9,0,7-3.1,7-7c0-3.5-2.6-6.4-6-6.9v-13.1
		C24,952.8,23.6,952.4,23,952.4z M63,952.4c-0.6,0-1,0.4-1,1v13.1c-3.4,0.5-6,3.4-6,6.9c0,3.9,3.1,7,7,7c3.9,0,7-3.1,7-7
		c0-3.5-2.6-6.4-6-6.9v-13.1C64,952.8,63.6,952.4,63,952.4z M9,958.4c-5,0-9,4-9,9v63.9c0,5,4,9,9,9H77c5,0,9-4,9-9v-63.9
		c0-5-4-9-9-9h-6c-0.5,0-1,0.5-1,1s0.5,1,1,1h6c3.9,0,7,3.1,7,7v19H2v-19c0-3.9,3.1-7,7-7h6c0.5,0,1-0.5,1-1s-0.5-1-1-1
		C15,958.4,9,958.4,9,958.4z M31,958.4c-0.6,0-1,0.4-1,1c0,0.6,0.4,1,1,1h24c0.6,0,1-0.4,1-1c0-0.6-0.4-1-1-1H31z M23,968.4
		c2.8,0,5,2.2,5,5s-2.2,5-5,5c-2.8,0-5-2.2-5-5S20.3,968.4,23,968.4z M63,968.4c2.8,0,5,2.2,5,5s-2.2,5-5,5c-2.8,0-5-2.2-5-5
		S60.3,968.4,63,968.4z M2,988.4h82v43c0,3.9-3.1,7-7,7H9c-3.9,0-7-3.1-7-7V988.4z" fill="currentColor"></path>
    </g>
  </symbol>
  <symbol version="1.1" id="ic_check" xmlns="http://www.w3.org/2000/svg" xmlns:xlink="http://www.w3.org/1999/xlink" x="0px" y="0px" xml:space="preserve" viewBox="0 0 25.8 22.3">
    <path d="M25.2,0C17.3,4.8,11.6,10.9,9,13.9L2.8,9L0,11.3l10.8,11c1.9-4.8,7.8-14.1,15-20.7L25.2,0z" fill="currentColor"></path>
  </symbol>
  <symbol version="1.1" id="ic_email" xmlns="http://www.w3.org/2000/svg" xmlns:xlink="http://www.w3.org/1999/xlink" x="0px" y="0px" xml:space="preserve" viewBox="0 0 56 55.5">
    <g>
      <polygon points="0.6,20.5 5,24.2 5,17.2 	" fill="currentColor"></polygon>
      <polygon points="0,54.4 19.2,38.5 0,22.6 	" fill="currentColor"></polygon>
      <path d="M7,25.8l13.8,11.4l5.3-4.4c1.1-0.9,2.7-0.9,3.8,0l5.3,4.4L49,25.8V6.5H7V25.8z M13,13.5c0-2.8,2.2-5,5-5h20
		c2.8,0,5,2.2,5,5v8c0,2.8-2.2,5-5,5h-5.5l-3.7,4.6c-0.3,0.4-1,0.5-1.4,0.2c-0.1,0-0.1-0.1-0.2-0.2l-3.7-4.6H18c-2.8,0-5-2.2-5-5
		V13.5z" fill="currentColor"></path>
      <path d="M18,24.5h6c0.3,0,0.6,0.1,0.8,0.4l3.2,4l3.2-4c0.2-0.2,0.5-0.4,0.8-0.4h6c1.7,0,3-1.3,3-3v-8c0-1.7-1.3-3-3-3H18
		c-1.7,0-3,1.3-3,3v8C15,23.1,16.3,24.5,18,24.5z M20,12.5h16c0.6,0,1,0.4,1,1s-0.4,1-1,1H20c-0.6,0-1-0.4-1-1S19.4,12.5,20,12.5z
		 M20,16.5h16c0.6,0,1,0.4,1,1s-0.4,1-1,1H20c-0.6,0-1-0.4-1-1S19.4,16.5,20,16.5z M20,20.5h16c0.6,0,1,0.4,1,1s-0.4,1-1,1H20
		c-0.6,0-1-0.4-1-1S19.4,20.5,20,20.5z" fill="currentColor"></path>
      <polygon points="51,24.2 55.4,20.5 51,17.2 	" fill="currentColor"></polygon>
      <polygon points="56,22.6 36.8,38.5 56,54.4 	" fill="currentColor"></polygon>
      <path d="M27.4,0.2l-5.7,4.3h12.5l-5.7-4.3C28.3-0.1,27.8-0.1,27.4,0.2z" fill="currentColor"></path>
      <path d="M28.6,34.3c-0.4-0.3-0.9-0.3-1.3,0L1.8,55.5h52.4L28.6,34.3z" fill="currentColor"></path>
    </g>
  </symbol>
  <symbol version="1.1" id="ic_list" xmlns="http://www.w3.org/2000/svg" xmlns:xlink="http://www.w3.org/1999/xlink" x="0px" y="0px" xml:space="preserve" viewBox="0 0 86.8 95.7">
    <path d="M0.2,42.3l22.1,22.1L86.8,0l-0.1,27.9L21.2,95.7L0,70.5L0.2,42.3z" fill="currentColor"></path>
  </symbol>
  <symbol version="1.1" id="ic_map" xmlns="http://www.w3.org/2000/svg" xmlns:xlink="http://www.w3.org/1999/xlink" x="0px" y="0px" xml:space="preserve" viewBox="0 0 74 90">
    <g transform="translate(0,-952.36218)">
      <path d="M54.6,952.5c11.6,7.2,19.4,20.2,19.4,34.9c0,22.3-17.8,40.4-40,41v5h11c0.5,0,0.8,0.3,1,0.7l2,7c0.2,0.6-0.3,1.3-1,1.3H19
		c-0.6,0-1.1-0.7-1-1.3l2-7c0.1-0.4,0.5-0.7,1-0.7h11v-5c-5.5-0.1-10.7-1.3-15.4-3.4c-0.5-0.2-0.7-0.8-0.5-1.3
		c0.2-0.5,0.9-0.7,1.3-0.5c4.8,2.1,10,3.3,15.6,3.3c21.6,0,39-17.4,39-39c0-14-7.4-26.3-18.4-33.2c-0.4-0.2-0.6-0.7-0.5-1.1
		C53.4,952.2,54.2,952.3,54.6,952.5z M33,954.4c18.2,0,33,14.8,33,33c0,18.2-14.8,33-33,33c-18.2,0-33-14.8-33-33
		c0-13.6,8.3-25.3,20-30.3c0.1-0.1,0.1-0.2,0.2-0.2l0.2,0.1C24.2,955.3,28.5,954.4,33,954.4z M33,956.4c-4.1,0-8,0.8-11.6,2.3
		c-2.4,4-2.3,8.1-2.4,10.7c-0.1,3.1,1.3,5,2.8,7.5c0.9,1.5,2.5,2.8,3.9,4.1s2.9,2.4,3.2,4.2c0.5,2.6,0.9,5.5,1.8,7.7
		c0.4,1.1,1,2,1.7,2.6c0.7,0.6,1.4,0.9,2.6,0.9c1,0,1.7-0.3,2.3-0.9c0.7-0.6,1.2-1.5,1.8-2.6c1.4-2.7,1.6-4.9,1.6-7.2
		c0-2.3-0.2-4.8,0.3-7.5c0.6-2.8,2.2-4.6,3.6-6.1c1.4-1.5,2.4-2.7,2.4-4.7c0-4.4-1.1-7.3-3.6-9.2C40.1,957,36.6,956.4,33,956.4z
		 M47.4,959.9c1.1,2,1.6,4.5,1.6,7.4c0,2.7-1.5,4.4-2.9,6s-2.7,3-3.2,5.2c-0.5,2.4-0.3,4.6-0.3,7.1c0,2.5-0.3,5.2-1.8,8.2
		c-0.6,1.2-1.3,2.3-2.3,3.2c-1,0.8-2.2,1.4-3.6,1.4c-1.6,0-2.9-0.6-3.9-1.4s-1.7-2.1-2.2-3.3c-1-2.6-1.4-5.6-1.8-8
		c-0.2-0.8-1.2-1.9-2.6-3.1c-1.4-1.2-3.1-2.7-4.3-4.6c-1.5-2.4-3.2-4.8-3.2-8.5c0-2-0.1-5.6,1.4-9.3C8.7,965.2,2,975.5,2,987.4
		c0,4.6,1,9,2.8,12.9c2.3-1.4,5.7-1.7,9.1-1.9c0,0,0,0,0.1,0c4.8,0,8.2,1.6,9.4,4.2c1.3,2.6,0.2,5.8-2.7,8.4l0,0c0,0,0,0-0.1,0
		c-1.5,1.5-2.8,2.3-3.8,2.8c4.7,2.8,10.2,4.5,16.1,4.5c17.1,0,31-13.9,31-31C64,975.4,57.3,965.1,47.4,959.9L47.4,959.9z
		 M14.1,1000.4C14.1,1000.4,14.1,1000.4,14.1,1000.4c-3.5,0.2-6.9,0.8-8.4,1.7c2.3,4.2,5.4,7.8,9.3,10.6v-0.3c0,0,0.2,0,1-0.3
		c0.8-0.3,1.9-1,3.3-2.4c0,0,0,0,0.1,0c2.5-2.3,3.1-4.5,2.2-6.2C20.9,1001.8,18.4,1000.4,14.1,1000.4L14.1,1000.4z M44.2,1035.4
		H21.8l-1.4,5h25.4L44.2,1035.4z" fill="currentColor"></path>
    </g>
  </symbol>
  <symbol version="1.1" id="ic_operator" xmlns="http://www.w3.org/2000/svg" xmlns:xlink="http://www.w3.org/1999/xlink" x="0px" y="0px" xml:space="preserve" viewBox="0 0 85.3 99.9">
    <path d="M85.2,98.9l-1.9-5.7c-1.6-4.9-5.8-8.6-10.9-9.7l-9.8-2l-5.9-4.2l-2.1-2.5l0,0c10.8-2,18.1-10.1,18.1-20.7v-0.5h0.5
	c3.4,0,6.1-2.8,6.1-6.1v-8.4c0-3.4-2.8-6.1-6.1-6.1h-0.5v-3c0-16.6-13.5-30-30-30s-30,13.5-30,30v3h-0.5c-3.4,0-6.1,2.8-6.1,6.1v8.4
	c0,3.4,2.8,6.1,6.1,6.1h0.5c0.1,0.7,0.7,1.3,1.5,1.3s1.5-0.7,1.5-1.5V29.9c0-14.9,12.1-27,27-27s27,12.1,27,27v24.2
	c0,9.2-6.2,16-15.7,17.7V66c0.6-0.5,1.2-1,1.7-1.5c6.1-5.5,9.4-12.4,9.4-16v-4c0.9,0.1,1.8,0.1,2.7,0.2l0,0c0.4,0,0.7-0.3,0.8-0.7
	c0-0.4-0.3-0.8-0.7-0.8c-8.2-0.3-16.1-3-22.8-7.8S33.4,23.9,30.6,16.2c-0.1-0.4-0.6-0.6-1-0.5s-0.6,0.6-0.5,1
	c0.3,0.9,0.7,1.8,1.1,2.7c-5.9,2-10,7.6-10,13.9v15.1c0,4,3,9.4,8.2,14.7c0.8,0.8,1.6,1.6,2.6,2.5V75l-2.6,2.3l-6,4.2l-9.8,2
	c-5.1,1.1-9.2,4.8-10.9,9.7L0,98.9c-0.1,0.4,0.1,0.8,0.5,1c0.1,0,0.2,0,0.2,0c0.3,0,0.6-0.2,0.7-0.5l1.9-5.7C4.7,89.3,8.5,86,13,85
	l10.1-2.1l5.8-4l13.3,11.4c0.1,0.1,0.3,0.2,0.5,0.2s0.4-0.1,0.5-0.2l13.2-11.4l5.8,4L72.3,85c4.5,0.9,8.3,4.3,9.7,8.7l1.9,5.7
	c0.1,0.3,0.4,0.5,0.7,0.5c0.1,0,0.2,0,0.2,0C85.2,99.7,85.4,99.3,85.2,98.9z M7.6,47.4V39c0-2.5,2.1-4.6,4.6-4.6h0.5V52h-0.5
	C9.6,52.1,7.6,50,7.6,47.4z M73.2,34.5c2.5,0,4.6,2.1,4.6,4.6v8.4c0,2.5-2.1,4.6-4.6,4.6h-0.5V34.5H73.2z M29.5,62
	c-4.9-4.9-7.8-10-7.8-13.6V33.3c0-5.7,3.7-10.8,9.1-12.6c3.1,6.3,7.6,11.7,13.3,15.8c5.8,4.2,12.4,6.8,19.4,7.8v4.1
	c0,3.3-3.3,9.8-8.9,14.9c-2.8,2.5-6.7,6-12,6C36.8,69.4,32.6,65.1,29.5,62z M31,77v1.6l-0.9-0.7L31,77z M42.6,88.6l-10.1-8.7v-13
	c2.7,2.1,6,4,10.2,4l0,0c4,0,7.2-1.7,9.8-3.7V72c-1,0.1-2,0.2-3.1,0.2h-6.8c-0.8,0-1.5,0.7-1.5,1.5c0,0.6,0.4,1.2,0.9,1.4
	c0.3,1.3,1.3,2.2,2.6,2.2h2.9c1.2,0,2.2-0.9,2.5-2.1c0.8,0,1.7-0.1,2.5-0.2v5.1L42.6,88.6z M48.4,75.3c-0.2,0.3-0.5,0.6-0.9,0.6
	h-2.9c-0.4,0-0.7-0.2-0.9-0.6H48.4z M54,78.9v-2.4l1.2,1.4L54,78.9z" fill="currentColor"></path>
  </symbol>
  <symbol version="1.1" id="ic_phone" xmlns="http://www.w3.org/2000/svg" xmlns:xlink="http://www.w3.org/1999/xlink" x="0px" y="0px" xml:space="preserve" viewBox="0 0 56 56">
    <g>
      <rect x="37" y="42" width="2" height="2" fill="currentColor"></rect>
      <rect x="45" y="42" width="2" height="2" fill="currentColor"></rect>
      <rect x="37" y="26" width="2" height="2" fill="currentColor"></rect>
      <rect x="37" y="34" width="2" height="2" fill="currentColor"></rect>
      <rect x="29" y="34" width="2" height="2" fill="currentColor"></rect>
      <rect x="29" y="26" width="2" height="2" fill="currentColor"></rect>
      <path d="M56,53c-0.9,0.7-1.9,1-3,1H3c-1.1,0-2.1-0.4-3-1v0c0,1.7,1.3,3,3,3h50C54.7,56,56,54.7,56,53L56,53z" fill="currentColor"></path>
      <rect x="29" y="42" width="2" height="2" fill="currentColor"></rect>
      <rect x="45" y="26" width="2" height="2" fill="currentColor"></rect>
      <rect x="29" y="14" width="19" height="4" fill="currentColor"></rect>
      <path d="M16.3,13.3l1.7-1.7V1c0-0.6-0.4-1-1-1H7C6.4,0,6,0.4,6,1v10.6l1.7,1.7C7.9,13.5,8,13.7,8,14v18c0,0.3-0.1,0.5-0.3,0.7
		L6,34.4V45c0,0.6,0.4,1,1,1h10c0.6,0,1-0.4,1-1V34.4l-1.7-1.7C16.1,32.5,16,32.3,16,32V14C16,13.7,16.1,13.5,16.3,13.3z" fill="currentColor"></path>
      <path d="M56,9c0-1.7-1.3-3-3-3H20v6c0,0.3-0.1,0.5-0.3,0.7L18,14.4v17.2l1.7,1.7c0.2,0.2,0.3,0.4,0.3,0.7v11c0,1.7-1.3,3-3,3H7
		c-1.7,0-3-1.3-3-3V34c0-0.3,0.1-0.5,0.3-0.7L6,31.6V14.4l-1.7-1.7C4.1,12.5,4,12.3,4,12V5.9L3,6c-1.6,0-3,1.4-3,3v40
		c0,1.7,1.3,3,3,3h50c1.7,0,3-1.3,3-3V9z M33,45c0,0.6-0.4,1-1,1h-4c-0.6,0-1-0.4-1-1v-4c0-0.6,0.4-1,1-1h4c0.6,0,1,0.4,1,1V45z
		 M33,37c0,0.6-0.4,1-1,1h-4c-0.6,0-1-0.4-1-1v-4c0-0.6,0.4-1,1-1h4c0.6,0,1,0.4,1,1V37z M33,29c0,0.6-0.4,1-1,1h-4
		c-0.6,0-1-0.4-1-1v-4c0-0.6,0.4-1,1-1h4c0.6,0,1,0.4,1,1V29z M41,45c0,0.6-0.4,1-1,1h-4c-0.6,0-1-0.4-1-1v-4c0-0.6,0.4-1,1-1h4
		c0.6,0,1,0.4,1,1V45z M41,37c0,0.6-0.4,1-1,1h-4c-0.6,0-1-0.4-1-1v-4c0-0.6,0.4-1,1-1h4c0.6,0,1,0.4,1,1V37z M41,29
		c0,0.6-0.4,1-1,1h-4c-0.6,0-1-0.4-1-1v-4c0-0.6,0.4-1,1-1h4c0.6,0,1,0.4,1,1V29z M49,45c0,0.6-0.4,1-1,1h-4c-0.6,0-1-0.4-1-1v-4
		c0-0.6,0.4-1,1-1h4c0.6,0,1,0.4,1,1V45z M49,37c0,0.6-0.4,1-1,1h-4c-0.6,0-1-0.4-1-1v-4c0-0.6,0.4-1,1-1h4c0.6,0,1,0.4,1,1V37z
		 M49,29c0,0.6-0.4,1-1,1h-4c-0.6,0-1-0.4-1-1v-4c0-0.6,0.4-1,1-1h4c0.6,0,1,0.4,1,1V29z M50,19c0,0.6-0.4,1-1,1H28
		c-0.6,0-1-0.4-1-1v-6c0-0.6,0.4-1,1-1h21c0.6,0,1,0.4,1,1V19z" fill="currentColor"></path>
      <rect x="45" y="34" width="2" height="2" fill="currentColor"></rect>
    </g>
  </symbol>
  <symbol version="1.1" id="ic_sale" xmlns="http://www.w3.org/2000/svg" xmlns:xlink="http://www.w3.org/1999/xlink" x="0px" y="0px" xml:space="preserve" viewBox="0 0 8.5 4.6">
    <g>
      <path d="M0.3,0C0.1,0,0,0.1,0,0.3v4.1c0,0.1,0.1,0.3,0.3,0.3c0,0,0,0,0,0h6c0.1,0,0.1,0,0.2-0.1l2-2.1c0.1-0.1,0.1-0.3,0-0.4
		l-2-2.1C6.4,0,6.3,0,6.2,0L0.3,0z M1.5,1.1c0.4,0,0.7,0.3,0.7,0.7S1.9,2.5,1.5,2.5c-0.4,0-0.7-0.3-0.7-0.7S1.2,1.1,1.5,1.1z M3,1.1
		c0.1,0,0.3,0.1,0.3,0.3c0,0,0,0.1,0,0.1l-1,1.7C2.2,3.3,2.1,3.4,1.9,3.3C1.8,3.2,1.8,3.1,1.8,2.9l0,0l1-1.7C2.8,1.2,2.9,1.1,3,1.1
		C3,1.1,3,1.1,3,1.1L3,1.1z M1.5,1.6c-0.1,0-0.1,0.1-0.1,0.2c0,0.1,0.1,0.1,0.1,0.1c0.1,0,0.2-0.1,0.2-0.1C1.7,1.7,1.6,1.6,1.5,1.6z
		 M6.1,1.7c0.2,0,0.3,0.1,0.5,0.2c0.3,0.3,0.3,0.7,0,0.9c-0.3,0.3-0.7,0.3-1,0c-0.3-0.3-0.3-0.7,0-0.9C5.7,1.7,5.9,1.7,6.1,1.7z
		 M3.6,2.2c0.4,0,0.7,0.3,0.7,0.7c0,0.4-0.3,0.7-0.7,0.7S2.9,3.2,2.9,2.9C2.9,2.5,3.2,2.2,3.6,2.2z M3.6,2.7c-0.1,0-0.2,0.1-0.2,0.2
		C3.4,3,3.5,3,3.6,3C3.6,3,3.7,3,3.7,2.9C3.7,2.8,3.6,2.7,3.6,2.7z" fill="currentColor"></path>
    </g>
  </symbol>
  <symbol version="1.1" id="ic_send" xmlns="http://www.w3.org/2000/svg" xmlns:xlink="http://www.w3.org/1999/xlink" x="0px" y="0px" xml:space="preserve" viewBox="0 0 31.8 25.7">
    <g>
      <g transform="translate(0.000000, -3.000000)">
        <g>
          <path d="M5.1,14.8L2.5,5.7l25.6,10.2L2.5,26l1.1-4c0.2-0.5-0.2-1.1-0.7-1.2c-0.5-0.2-1.1,0.2-1.2,0.7L0,27.4
				c-0.2,0.8,0.6,1.5,1.3,1.2l29.8-11.8c0.8-0.3,0.8-1.5,0-1.9L1.4,3.1C0.6,2.8-0.2,3.5,0,4.3l3.3,11.8c0.1,0.4,0.5,0.7,1,0.7h8.3
				c0.6,0,1-0.4,1-1c0-0.6-0.4-1-1-1H5.1z" fill="currentColor"></path>
        </g>
      </g>
    </g>
  </symbol>
  <symbol version="1.1" id="ic_user" xmlns="http://www.w3.org/2000/svg" xmlns:xlink="http://www.w3.org/1999/xlink" x="0px" y="0px" xml:space="preserve" viewBox="0 0 487.6 605.1">
    <path d="M112.1,94.5c-3.9,14.6-6.7,28.3-8.7,41.5c-2,15.4-2.5,30.9-2.2,46c-3.1,3.6-5.6,7.9-7.6,12.6c-2,3.9-3.1,8.7-3.6,14.6
	c-0.6,5.9,0.3,12.3,2.8,18.8c2.2,6.5,4.5,11.8,7.3,15.4c2.5,3.6,4.8,6.5,7.3,8.4c2.8,1.7,5.6,3.1,8.4,4.2c0.3,1.2,0.7,2.4,1,3.6
	c11,77,79.8,136.4,127.1,136.4c47.4,0,116.8-60,127.2-137.5c0.3-1,0.6-2,0.8-3c4.2-1.1,7.9-3.1,11.2-6.5c2.8-2.8,5.6-7,8.4-12.1
	c2.8-5.1,4.5-12.1,5.6-20.5c1-6.3,0.7-11.9-0.4-16.4h0c-1.1-4.5-2.5-8.1-3.9-10.9c-2-3.1-4.2-5.6-6.4-7.6c0.6-16-0.3-32-2.8-48
	c-2.5-13.5-5.9-28.3-10.9-44c-5.1-16-12.6-30-23-42.9c-9-11.2-23-21.9-41.8-31.7C288.7,5,267.4,0,243.3,0c-9,0-18.5,0.8-28.3,2.2
	c-9.8,1.4-19.9,4.2-29.7,8.1c-9.8,3.9-19.6,9.5-28.9,16.6c-9.5,7-18,16.3-25.5,27.5C122.2,66.7,116,80.2,112.1,94.5z" fill="currentColor"></path>
    <path d="M485.9,497.2c-0.8-9.7-2.2-17.8-4.2-24.3v0c-3.9-10.4-10.1-18.8-18.8-27.2c-8.7-6.5-18.5-12.1-29.7-16.3
	s-22.7-7.9-34.8-10.9c-9.9-2.5-25.7-8.3-31-10.3c-1.2-0.4-2.3-1-3.4-1.6L345.3,396c-3.6-2.1-8.2-1.1-10.7,2.3
	c-9.9,13.8-34.7,48.3-48.6,68.1c-3.2,4.6-10,4.3-12.9-0.4c-6.9-11.3-13.8-21.8-20.7-33.2c-2.8-4.7-9.5-5-12.8-0.6
	c-8.9,11.9-16.8,23.7-25.7,35.6c-3.1,4.2-9.5,4.1-12.5-0.2c-16-22.8-33-45.6-49-68.4c-2.4-3.5-7.2-4.4-10.7-1.9
	c-0.1,0.1-0.2,0.2-0.3,0.2c-2.4,1.8-5.1,3.7-8,5.7c-10.7,7.3-23,12.3-37,16c-14,3.6-27.5,7.6-40.7,12.3
	C42.5,436.3,31,442.4,21.5,450s-15.7,18.8-18,33.9C-0.4,509.7-1,531,1.3,547.6c2.5,16.6,5.6,26.4,9.3,29.7c2.5,2,8.1,3.9,17.4,6.2
	c9.3,2.2,20.5,4.2,33.9,6.5c13.5,2,28.3,3.9,44.3,5.6c16,1.4,32.3,3.1,48.8,4.5c16.6,1.4,32.5,2.5,47.7,3.6
	c15.4,0.8,28.9,1.4,40.7,1.4s25.5-0.6,41-1.4c15.7-1.1,31.7-2.2,48.5-3.6s33.4-3.1,49.9-5.3s31.7-4.2,45.4-6.7
	c13.5-2.2,25-4.8,34.2-7.6c9.3-2.8,14.6-5.6,16.6-8.4c2.8-4.2,5.1-10.7,6.4-19.1c1.7-8.4,2.2-17.7,2.2-27.2S487,506.4,485.9,497.2z" fill="currentColor"></path>
  </symbol>
</svg>